<svg width="1920" height="481" viewBox="0 0 1920 481" fill="none" xmlns="http://www.w3.org/2000/svg">
<g clip-path="url(#clip0_1_4)">
<path d="M836.537 13.4828C834.128 33.5592 827.034 58.0525 823.554 58.0525C822.617 58.0525 816.193 55.3757 809.367 52.1634C798.392 47.0774 781.661 41.9914 775.504 41.9914C773.898 41.9914 774.701 44.4006 778.583 52.2974C784.472 64.2094 789.825 82.8135 789.156 89.2379L788.755 93.5209L776.709 94.4579C741.642 97.1347 725.179 98.7409 725.179 99.4101C725.179 99.9455 731.068 106.236 738.296 113.597C751.814 127.249 761.718 141.838 761.049 146.924C760.781 148.798 753.956 154.419 739.902 164.19C728.525 172.087 719.022 179.18 718.755 179.85C718.487 180.519 719.959 181.456 722.101 181.991C736.422 185.07 742.579 187.077 747.665 190.022C754.625 194.171 761.852 200.328 765.466 205.414L768.143 209.161L753.152 224.018C740.571 236.599 738.43 239.143 740.036 240.615C741.107 241.552 749.137 244.63 757.971 247.307C766.804 249.984 774.567 252.795 775.237 253.464C775.906 254.133 774.835 260.959 772.292 270.328C770.017 279.028 768.544 286.657 768.946 287.326C769.615 288.531 791.699 287.46 795.313 286.122C798.659 284.917 799.998 288.128 800.934 298.703C801.47 304.86 802.273 310.08 802.808 310.346C803.879 311.017 818.87 304.591 818.87 303.52C818.87 303.12 817.13 300.308 814.988 297.231C808.831 288.263 804.682 279.028 800.801 266.179C798.927 259.487 796.116 250.519 794.778 246.102C793.305 241.686 791.833 235.663 791.565 232.718C789.692 218.531 789.424 213.311 790.762 213.311C791.432 213.311 792.101 215.586 792.101 218.263C792.235 224.286 795.179 240.347 797.187 246.102C797.99 248.244 800.533 256.141 802.808 263.502C808.296 280.768 816.193 296.294 823.019 303.12C826.231 306.331 833.191 310.883 839.883 313.96L851.126 319.18L850.725 324.132L850.323 329.086L820.476 338.989L790.629 349.027L786.747 361.742C784.606 368.836 778.583 389.85 773.229 408.588C767.875 427.192 762.789 443.253 761.986 444.056C761.183 444.859 758.774 452.087 756.766 460.251C754.759 468.282 752.885 476.045 752.483 477.25C751.814 479.525 757.168 479.659 852.197 479.659C947.359 479.659 952.713 479.525 952.713 477.25C952.713 476.045 946.422 469.085 938.659 461.858C930.896 454.63 924.605 447.938 924.605 446.867C924.605 445.93 929.424 440.978 935.179 435.892C949.902 423.311 950.036 422.508 944.013 407.115C933.841 381.284 912.024 341.398 903.993 333.903C901.45 331.494 900.513 329.218 900.513 325.606C900.513 320.117 901.718 318.78 908.544 316.503C915.504 314.228 922.33 309.009 927.015 302.451C930.762 297.231 932.368 296.294 942.674 293.082C948.965 291.074 954.051 288.931 954.051 288.397C954.051 287.728 951.642 284.248 948.697 280.768C942.942 273.808 941.871 268.856 945.753 267.651C946.957 267.25 951.642 266.58 956.059 266.045C960.475 265.644 964.491 264.974 965.026 264.573C966.231 264.037 959.405 245.032 957.799 244.362C957.263 244.095 956.728 242.89 956.728 241.552C956.728 239.946 958.602 238.741 963.42 237.536C971.718 235.395 991.527 225.892 991.527 224.152C991.527 223.349 988.984 221.475 985.906 219.869C968.774 211.169 954.854 201.131 957.665 199.525C958.2 199.257 963.152 197.651 968.506 196.045C973.86 194.439 982.56 191.093 987.913 188.683C997.149 184.534 1016.15 173.291 1015.35 172.488C1014.82 172.087 978.544 156.561 975.064 155.356C973.458 154.687 973.057 153.884 973.726 152.679C974.261 151.609 983.095 143.043 993.267 133.674C1003.31 124.171 1011.6 116.007 1011.6 115.471C1011.6 114.401 1003.3 112.928 978.812 109.448C969.978 108.11 962.215 106.771 961.68 106.236C961.011 105.701 967.168 93.9225 975.332 80.1367C988.583 57.5172 991.126 52.6988 989.787 52.6988C989.52 52.6988 978.544 56.5803 965.428 61.3986C946.288 68.3585 941.068 69.697 939.73 68.3585C936.785 65.414 933.974 43.3298 933.974 23.521V4.38146L923.133 10.1367C910.418 16.9627 893.42 30.2131 885.523 39.4484C882.578 43.0621 879.5 46.0067 878.966 46.0067C878.295 46.0067 873.209 39.8499 867.454 32.2208C857.551 19.1042 840.82 0.5 838.946 0.5C838.41 0.5 837.34 6.38909 836.537 13.4828ZM840.284 348.893C835.332 352.775 810.036 419.563 812.043 423.043C812.713 424.247 818.468 429.735 824.892 435.357C831.451 440.978 836.938 446.198 837.206 447.001C837.474 447.804 835.868 450.749 833.592 453.559C831.451 456.37 829.577 457.842 829.577 456.905C829.577 456.102 830.781 453.693 832.388 451.819L835.198 448.206L822.349 436.16C813.382 427.727 809.5 423.177 809.5 421.035C809.5 416.752 824.759 375.796 834.128 354.783C836.403 349.696 838.277 347.153 839.883 347.153C842.024 347.287 842.024 347.421 840.284 348.893Z" fill="#F5F5F5"/>
<path d="M1064.34 188.55C1026.73 195.376 1005.98 210.232 979.083 249.984C973.194 258.55 972.792 259.621 972.792 267.919C972.792 274.343 971.454 280.634 967.974 291.474C962.085 309.811 962.352 314.094 970.783 328.415C974.129 334.037 976.806 339.392 976.806 340.06C976.806 340.863 975.066 343.406 972.792 345.815C965.697 353.444 965.832 365.222 973.194 373.119C977.477 377.536 987.514 381.685 990.191 379.945C990.86 379.544 989.923 376.465 988.183 372.985C986.309 369.639 984.837 365.892 984.971 364.687C984.971 363.349 985.64 363.75 986.443 365.892C988.718 370.844 999.292 387.173 1004.51 393.597C1014.82 406.446 1037.04 419.429 1057.78 424.917C1064.07 426.523 1075.18 427.995 1084.55 428.397C1093.38 428.798 1099.41 429.601 1097.93 430.137C1089.9 432.947 1052.96 427.727 1035.97 421.303L1027.13 417.957L1024.86 421.035C1016.42 432.144 1006.79 457.441 1004.38 474.573L1003.71 479.659H1086.69C1165.12 479.659 1169.67 479.525 1169.01 477.25C1168.6 476.045 1166.46 468.014 1164.32 459.448C1159.64 440.978 1155.89 431.743 1149.87 423.846C1147.46 420.634 1145.45 417.288 1145.45 416.351C1145.58 415.548 1148.93 412.335 1153.08 409.391C1160.57 404.037 1170.88 393.196 1176.5 384.63C1178.37 381.819 1181.32 379.544 1184 378.741C1186.27 378.071 1190.55 375.261 1193.5 372.584C1202.73 363.75 1203.67 351.704 1195.51 344.61C1192.7 342.201 1192.29 340.997 1193.1 336.714C1193.63 334.037 1194.44 331.494 1194.97 331.092C1195.51 330.691 1196.71 326.809 1197.65 322.392C1198.99 315.969 1198.99 311.017 1197.65 297.231C1196.71 287.862 1195.37 280.233 1194.7 280.233C1194.03 280.233 1193.63 276.485 1193.77 271.8C1194.03 264.439 1193.37 262.164 1188.55 252.795C1182.12 240.079 1172.62 226.16 1162.98 215.72C1157.09 209.295 1153.21 206.752 1138.09 199.257C1127.38 194.037 1116.4 189.62 1111.05 188.55C1099.94 186.14 1077.19 186.14 1064.34 188.55Z" fill="#F5F5F5"/>
<path d="M907.208 334.572C907.208 334.974 909.751 338.721 912.963 342.87C916.174 347.02 920.591 353.578 923 357.192C929.291 367.23 943.88 398.549 948.163 410.997C952.847 424.247 952.446 425.184 938.392 437.096C933.038 441.647 928.623 446.466 928.623 447.536C928.623 448.741 934.644 455.165 942.006 462.125C950.037 469.487 955.39 475.51 955.39 477.116C955.39 479.525 956.461 479.659 974.128 479.659C988.182 479.659 992.867 479.257 992.867 477.919C992.867 472.297 960.075 354.381 956.996 348.76C956.461 347.689 947.895 344.878 937.991 342.335C928.086 339.926 917.78 336.981 914.969 335.777C909.483 333.635 907.208 333.234 907.208 334.572Z" fill="#F5F5F5"/>
</g>
<defs>
<clipPath id="clip0_1_4">
<rect width="1920" height="480" fill="white" transform="translate(0 0.5)"/>
</clipPath>
</defs>
</svg>
