<svg width="18" height="31" viewBox="0 0 18 31" fill="none" xmlns="http://www.w3.org/2000/svg">
<g clip-path="url(#clip0_1_148)">
<path fill-rule="evenodd" clip-rule="evenodd" d="M9 7.18994C4.0275 7.18994 0 11.2174 0 16.1899C0 20.1724 2.57625 23.5362 6.15375 24.7287C6.60375 24.8074 6.7725 24.5374 6.7725 24.3012C6.7725 24.0874 6.76125 23.3787 6.76125 22.6249C4.5 23.0412 3.915 22.0737 3.735 21.5674C3.63375 21.3087 3.195 20.5099 2.8125 20.2962C2.4975 20.1274 2.0475 19.7112 2.80125 19.6999C3.51 19.6887 4.01625 20.3524 4.185 20.6224C4.995 21.9837 6.28875 21.6012 6.80625 21.3649C6.885 20.7799 7.12125 20.3862 7.38 20.1612C5.3775 19.9362 3.285 19.1599 3.285 15.7174C3.285 14.7387 3.63375 13.9287 4.2075 13.2987C4.1175 13.0737 3.8025 12.1512 4.2975 10.9137C4.2975 10.9137 5.05125 10.6774 6.7725 11.8362C7.4925 11.6337 8.2575 11.5324 9.0225 11.5324C9.7875 11.5324 10.5525 11.6337 11.2725 11.8362C12.9938 10.6662 13.7475 10.9137 13.7475 10.9137C14.2425 12.1512 13.9275 13.0737 13.8375 13.2987C14.4113 13.9287 14.76 14.7274 14.76 15.7174C14.76 19.1712 12.6563 19.9362 10.6538 20.1612C10.98 20.4424 11.2613 20.9824 11.2613 21.8262C11.2613 23.0299 11.25 23.9974 11.25 24.3012C11.25 24.5374 11.4188 24.8187 11.8688 24.7287C13.6554 24.1255 15.2079 22.9773 16.3078 21.4455C17.4077 19.9138 17.9995 18.0757 18 16.1899C18 11.2174 13.9725 7.18994 9 7.18994Z" fill="#9E9E9E"/>
</g>
<defs>
<clipPath id="clip0_1_148">
<rect width="18" height="18" fill="white" transform="translate(0 7.18994)"/>
</clipPath>
</defs>
</svg>
